<svg width="64" height="64" viewBox="0 0 64 64" fill="none" xmlns="http://www.w3.org/2000/svg">
<path d="M64 32C64 49.6731 49.6731 64 32 64C14.3269 64 0 49.6731 0 32C0 14.3269 14.3269 0 32 0C49.6731 0 64 14.3269 64 32Z" fill="#FFE9E9"/>
<path d="M36.5074 26.2988C34.1449 23.4019 33.1006 20.9381 32.5024 19.4681C32.3131 19.005 31.6849 19.005 31.4974 19.4681C30.8993 20.9381 29.8549 23.4019 27.4924 26.2988C26.0131 28.1138 24.5543 30.7706 24.5543 33.3881C24.5543 37.8544 27.7774 40.8788 31.9999 40.8788C36.2224 40.8788 39.4456 37.8525 39.4456 33.3881C39.4456 30.6675 37.9868 28.1138 36.5074 26.2988Z" fill="#E5322E"/>
<path d="M34.0587 32.97C35.2493 30.705 35.0806 28.4888 36.0218 28.8881C37.3006 29.4338 38.7162 32.2369 38.1856 34.7775C37.8068 36.5888 36.5843 37.6856 35.0262 37.1625C33.7681 36.7406 32.9862 35.01 34.0587 32.97Z" fill="#FF6050"/>
</svg>
