<svg width="64" height="64" viewBox="0 0 64 64" fill="none" xmlns="http://www.w3.org/2000/svg">
<path d="M64 32C64 49.6731 49.6731 64 32 64C14.3269 64 0 49.6731 0 32C0 14.3269 14.3269 0 32 0C49.6731 0 64 14.3269 64 32Z" fill="#FFE9E9"/>
<path d="M30.5 29H27.4835C27.255 29 27.0296 29.0521 26.8244 29.1524C26.6191 29.2528 26.4395 29.3987 26.2993 29.579L22.1322 34.9377C21.7227 35.4642 21.5002 36.112 21.5 36.779V38.75C21.5 39.1478 21.658 39.5294 21.9393 39.8107C22.2206 40.092 22.6022 40.25 23 40.25H30.74C30.74 34.781 31.3385 29.816 30.5 29Z" fill="#E6E6E6"/>
<path d="M31.1675 26.651C30.9557 26.8599 30.7876 27.1089 30.673 27.3834C30.5584 27.6579 30.4996 27.9525 30.5 28.25V35.8175H42.5V27.5C42.5005 27.1968 42.4087 26.9007 42.2368 26.651H31.1668H31.1675Z" fill="#F92F60"/>
<path d="M32.75 26C32.4334 25.9995 32.1202 26.0661 31.8312 26.1954C31.5421 26.3247 31.2837 26.5137 31.073 26.75H42.299C42.1674 26.522 41.978 26.3326 41.75 26.201C41.522 26.0693 41.2633 26 41 26H32.75ZM42.5 35.75H30.5V40.25H41C41.3978 40.25 41.7794 40.092 42.0607 39.8107C42.342 39.5294 42.5 39.1478 42.5 38.75V35.75Z" fill="#D3D3D3"/>
<path d="M29 39.875C29 40.5712 28.7234 41.2389 28.2312 41.7312C27.7389 42.2234 27.0712 42.5 26.375 42.5C25.6788 42.5 25.0111 42.2234 24.5188 41.7312C24.0266 41.2389 23.75 40.5712 23.75 39.875C23.75 39.1788 24.0266 38.5111 24.5188 38.0188C25.0111 37.5266 25.6788 37.25 26.375 37.25C27.0712 37.25 27.7389 37.5266 28.2312 38.0188C28.7234 38.5111 29 39.1788 29 39.875ZM40.25 39.875C40.25 40.5712 39.9734 41.2389 39.4812 41.7312C38.9889 42.2234 38.3212 42.5 37.625 42.5C36.9288 42.5 36.2611 42.2234 35.7688 41.7312C35.2766 41.2389 35 40.5712 35 39.875C35 39.1788 35.2766 38.5111 35.7688 38.0188C36.2611 37.5266 36.9288 37.25 37.625 37.25C38.3212 37.25 38.9889 37.5266 39.4812 38.0188C39.9734 38.5111 40.25 39.1788 40.25 39.875Z" fill="#433B6B"/>
<path d="M27.5 39.875C27.5 40.1734 27.3815 40.4595 27.1705 40.6705C26.9595 40.8815 26.6734 41 26.375 41C26.0766 41 25.7905 40.8815 25.5795 40.6705C25.3685 40.4595 25.25 40.1734 25.25 39.875C25.25 39.5766 25.3685 39.2905 25.5795 39.0795C25.7905 38.8685 26.0766 38.75 26.375 38.75C26.6734 38.75 26.9595 38.8685 27.1705 39.0795C27.3815 39.2905 27.5 39.5766 27.5 39.875ZM38.75 39.875C38.75 40.0227 38.7209 40.169 38.6644 40.3055C38.6078 40.442 38.525 40.566 38.4205 40.6705C38.316 40.775 38.192 40.8578 38.0555 40.9144C37.919 40.9709 37.7727 41 37.625 41C37.4773 41 37.331 40.9709 37.1945 40.9144C37.058 40.8578 36.934 40.775 36.8295 40.6705C36.725 40.566 36.6422 40.442 36.5856 40.3055C36.5291 40.169 36.5 40.0227 36.5 39.875C36.5 39.5766 36.6185 39.2905 36.8295 39.0795C37.0405 38.8685 37.3266 38.75 37.625 38.75C37.9234 38.75 38.2095 38.8685 38.4205 39.0795C38.6315 39.2905 38.75 39.5766 38.75 39.875ZM36.5 29C36.3011 29 36.1103 29.079 35.9697 29.2197C35.829 29.3603 35.75 29.5511 35.75 29.75V30.5H35C34.8011 30.5 34.6103 30.579 34.4697 30.7197C34.329 30.8603 34.25 31.0511 34.25 31.25C34.25 31.4489 34.329 31.6397 34.4697 31.7803C34.6103 31.921 34.8011 32 35 32H35.75V32.75C35.75 32.9489 35.829 33.1397 35.9697 33.2803C36.1103 33.421 36.3011 33.5 36.5 33.5C36.6989 33.5 36.8897 33.421 37.0303 33.2803C37.171 33.1397 37.25 32.9489 37.25 32.75V32H38C38.1989 32 38.3897 31.921 38.5303 31.7803C38.671 31.6397 38.75 31.4489 38.75 31.25C38.75 31.0511 38.671 30.8603 38.5303 30.7197C38.3897 30.579 38.1989 30.5 38 30.5H37.25V29.75C37.25 29.5511 37.171 29.3603 37.0303 29.2197C36.8897 29.079 36.6989 29 36.5 29Z" fill="#F4F4F4"/>
<path d="M22.25 38.75H21.5V36.779C21.5001 36.428 21.5618 36.0797 21.6823 35.75H22.25C22.4489 35.75 22.6397 35.829 22.7803 35.9697C22.921 36.1103 23 36.3011 23 36.5V38C23 38.1989 22.921 38.3897 22.7803 38.5303C22.6397 38.671 22.4489 38.75 22.25 38.75ZM42.125 36.5C41.8266 36.5 41.5405 36.6185 41.3295 36.8295C41.1185 37.0405 41 37.3266 41 37.625C41 37.9234 41.1185 38.2095 41.3295 38.4205C41.5405 38.6315 41.8266 38.75 42.125 38.75H42.5V36.5H42.125Z" fill="#FF822D"/>
<path d="M23.2498 33.5H28.25C28.6478 33.5 29.0294 33.342 29.3107 33.0607C29.592 32.7794 29.75 32.3978 29.75 32V30.5C29.75 30.3011 29.671 30.1103 29.5303 29.9697C29.3897 29.829 29.1989 29.75 29 29.75H26.1665L23.2498 33.5Z" fill="#26C9FC"/>
<path d="M27.5 29C27.5 28.8011 27.579 28.6103 27.7197 28.4697C27.8603 28.329 28.0511 28.25 28.25 28.25H29.75C29.9489 28.25 30.1397 28.329 30.2803 28.4697C30.421 28.6103 30.5 28.8011 30.5 29H27.5Z" fill="#D3D3D3"/>
<path d="M28.25 28.25C28.25 28.0511 28.329 27.8603 28.4697 27.7197C28.6103 27.579 28.8011 27.5 29 27.5C29.1989 27.5 29.3897 27.579 29.5303 27.7197C29.671 27.8603 29.75 28.0511 29.75 28.25H28.25Z" fill="#F8312F"/>
</svg>
