<svg width="279" height="406" viewBox="0 0 279 406" fill="none" xmlns="http://www.w3.org/2000/svg">
<path d="M64 32C64 49.6731 49.6731 64 32 64C14.3269 64 0 49.6731 0 32C0 14.3269 14.3269 0 32 0C49.6731 0 64 14.3269 64 32Z" fill="#FFE9E9"/>
<path d="M29.5878 17.7144C27.8441 17.7437 26.2691 18.7837 25.5566 20.3919L34.0878 22.9687C34.4628 20.7319 33.1191 18.5631 30.9566 17.905C30.5691 17.7875 30.1628 17.7231 29.7566 17.7144H29.5878ZM25.2316 21.4694C24.8503 23.7125 26.1941 25.8875 28.3628 26.5437C30.5378 27.2 32.8566 26.125 33.7691 24.0437L25.2316 21.4694ZM41.8253 24.2375C40.2441 24.2437 38.5628 25.0062 37.2941 26.8L29.4941 37.8562C27.4003 40.8187 28.3128 43.9187 30.3753 45.3812C32.4441 46.85 35.6628 46.6812 37.7566 43.7187L45.5503 32.6687C47.6441 29.7 46.7316 26.6062 44.6691 25.1375C43.8941 24.5875 42.9628 24.2687 41.9816 24.2375H41.8253ZM41.7128 25.3187C41.7941 25.3187 41.8753 25.3187 41.9503 25.325C42.7066 25.3562 43.4191 25.625 44.0191 26.0562C45.6253 27.1937 46.4316 29.4625 44.6253 32.0187L40.5941 37.7375C38.3566 37.1375 35.4816 35.0937 34.1753 33.175L38.2191 27.45C39.2753 25.9562 40.5316 25.3437 41.7128 25.3187ZM21.7034 30.0812C21.1022 30.0875 20.5091 30.2125 19.9578 30.4562C17.8884 31.3625 16.8116 33.675 17.4428 35.85L25.6128 32.2812C24.7941 30.9 23.3066 30.0625 21.7034 30.0812ZM26.0566 33.3062L17.8878 36.8812C19.0409 38.8437 21.4691 39.6312 23.5503 38.725C25.6253 37.8125 26.7003 35.4875 26.0566 33.3062Z" fill="#FB2929"/>
<path d="M96.6307 32.4545C96.6307 33.8352 96.3814 35.0284 95.8828 36.0341C95.3842 37.0398 94.7003 37.8153 93.831 38.3608C92.9616 38.9062 91.9688 39.179 90.8523 39.179C89.7358 39.179 88.7429 38.9062 87.8736 38.3608C87.0043 37.8153 86.3203 37.0398 85.8217 36.0341C85.3232 35.0284 85.0739 33.8352 85.0739 32.4545C85.0739 31.0739 85.3232 29.8807 85.8217 28.875C86.3203 27.8693 87.0043 27.0938 87.8736 26.5483C88.7429 26.0028 89.7358 25.7301 90.8523 25.7301C91.9688 25.7301 92.9616 26.0028 93.831 26.5483C94.7003 27.0938 95.3842 27.8693 95.8828 28.875C96.3814 29.8807 96.6307 31.0739 96.6307 32.4545ZM95.0966 32.4545C95.0966 31.321 94.907 30.3643 94.5277 29.5845C94.1527 28.8047 93.6435 28.2145 93 27.8139C92.3608 27.4134 91.6449 27.2131 90.8523 27.2131C90.0597 27.2131 89.3416 27.4134 88.6982 27.8139C88.0589 28.2145 87.5497 28.8047 87.1705 29.5845C86.7955 30.3643 86.608 31.321 86.608 32.4545C86.608 33.5881 86.7955 34.5447 87.1705 35.3246C87.5497 36.1044 88.0589 36.6946 88.6982 37.0952C89.3416 37.4957 90.0597 37.696 90.8523 37.696C91.6449 37.696 92.3608 37.4957 93 37.0952C93.6435 36.6946 94.1527 36.1044 94.5277 35.3246C94.907 34.5447 95.0966 33.5881 95.0966 32.4545ZM99.0916 39V29.1818H100.549V30.6648H100.651C100.83 30.179 101.154 29.7848 101.623 29.4822C102.092 29.1797 102.62 29.0284 103.208 29.0284C103.319 29.0284 103.457 29.0305 103.624 29.0348C103.79 29.0391 103.915 29.0455 104.001 29.054V30.5881C103.95 30.5753 103.832 30.5561 103.649 30.5305C103.47 30.5007 103.281 30.4858 103.08 30.4858C102.603 30.4858 102.177 30.5859 101.802 30.7862C101.431 30.9822 101.137 31.255 100.92 31.6044C100.707 31.9496 100.6 32.3437 100.6 32.7869V39H99.0916ZM109.197 39.2045C108.379 39.2045 107.657 38.9979 107.031 38.5845C106.404 38.1669 105.914 37.5788 105.56 36.8203C105.207 36.0575 105.03 35.1562 105.03 34.1165C105.03 33.0852 105.207 32.1903 105.56 31.4318C105.914 30.6733 106.406 30.0874 107.037 29.674C107.668 29.2607 108.396 29.054 109.223 29.054C109.862 29.054 110.367 29.1605 110.738 29.3736C111.113 29.5824 111.398 29.821 111.594 30.0895C111.795 30.3537 111.95 30.571 112.061 30.7415H112.189V25.9091H113.697V39H112.24V37.4915H112.061C111.95 37.6705 111.793 37.8963 111.588 38.169C111.384 38.4375 111.092 38.6783 110.712 38.8913C110.333 39.1001 109.828 39.2045 109.197 39.2045ZM109.402 37.8494C110.007 37.8494 110.518 37.6918 110.936 37.3764C111.354 37.0568 111.671 36.6158 111.888 36.0533C112.106 35.4865 112.214 34.8324 112.214 34.0909C112.214 33.358 112.108 32.7166 111.895 32.1669C111.682 31.6129 111.366 31.1825 110.949 30.8757C110.531 30.5646 110.016 30.4091 109.402 30.4091C108.763 30.4091 108.23 30.5732 107.804 30.9013C107.382 31.2251 107.065 31.6662 106.852 32.2244C106.643 32.7784 106.538 33.4006 106.538 34.0909C106.538 34.7898 106.645 35.4247 106.858 35.9957C107.075 36.5625 107.395 37.0142 107.817 37.3509C108.243 37.6832 108.771 37.8494 109.402 37.8494ZM120.786 39.2045C119.84 39.2045 119.024 38.9957 118.338 38.5781C117.656 38.1562 117.13 37.5682 116.759 36.8139C116.393 36.0554 116.21 35.1733 116.21 34.1676C116.21 33.1619 116.393 32.2756 116.759 31.5085C117.13 30.7372 117.646 30.1364 118.306 29.706C118.971 29.2713 119.746 29.054 120.633 29.054C121.144 29.054 121.649 29.1392 122.148 29.3097C122.646 29.4801 123.1 29.7571 123.509 30.1406C123.918 30.5199 124.244 31.0227 124.487 31.6491C124.73 32.2756 124.852 33.0469 124.852 33.9631V34.6023H117.283V33.2983H123.317C123.317 32.7443 123.207 32.25 122.985 31.8153C122.768 31.3807 122.457 31.0376 122.052 30.7862C121.651 30.5348 121.178 30.4091 120.633 30.4091C120.032 30.4091 119.512 30.5582 119.073 30.8565C118.638 31.1506 118.304 31.5341 118.07 32.0071C117.835 32.4801 117.718 32.9872 117.718 33.5284V34.3977C117.718 35.1392 117.846 35.7678 118.102 36.2834C118.362 36.7947 118.722 37.1847 119.182 37.4531C119.642 37.7173 120.177 37.8494 120.786 37.8494C121.183 37.8494 121.54 37.794 121.86 37.6832C122.184 37.5682 122.463 37.3977 122.697 37.1719C122.932 36.9418 123.113 36.6562 123.241 36.3153L124.698 36.7244C124.545 37.2188 124.287 37.6534 123.925 38.0284C123.563 38.3991 123.115 38.6889 122.582 38.8977C122.05 39.1023 121.451 39.2045 120.786 39.2045ZM127.146 39V29.1818H128.604V30.6648H128.706C128.885 30.179 129.209 29.7848 129.678 29.4822C130.146 29.1797 130.675 29.0284 131.263 29.0284C131.374 29.0284 131.512 29.0305 131.678 29.0348C131.844 29.0391 131.97 29.0455 132.055 29.054V30.5881C132.004 30.5753 131.887 30.5561 131.704 30.5305C131.525 30.5007 131.335 30.4858 131.135 30.4858C130.658 30.4858 130.232 30.5859 129.857 30.7862C129.486 30.9822 129.192 31.255 128.974 31.6044C128.761 31.9496 128.655 32.3437 128.655 32.7869V39H127.146ZM139.111 25.9091H141.003L145.452 36.7756H145.605L150.054 25.9091H151.946V39H150.463V29.054H150.335L146.244 39H144.812L140.721 29.054H140.594V39H139.111V25.9091ZM159.036 39.2045C158.09 39.2045 157.274 38.9957 156.588 38.5781C155.906 38.1562 155.38 37.5682 155.009 36.8139C154.643 36.0554 154.46 35.1733 154.46 34.1676C154.46 33.1619 154.643 32.2756 155.009 31.5085C155.38 30.7372 155.896 30.1364 156.556 29.706C157.221 29.2713 157.996 29.054 158.883 29.054C159.394 29.054 159.899 29.1392 160.398 29.3097C160.896 29.4801 161.35 29.7571 161.759 30.1406C162.168 30.5199 162.494 31.0227 162.737 31.6491C162.98 32.2756 163.102 33.0469 163.102 33.9631V34.6023H155.533V33.2983H161.567C161.567 32.7443 161.457 32.25 161.235 31.8153C161.018 31.3807 160.707 31.0376 160.302 30.7862C159.901 30.5348 159.428 30.4091 158.883 30.4091C158.282 30.4091 157.762 30.5582 157.323 30.8565C156.888 31.1506 156.554 31.5341 156.32 32.0071C156.085 32.4801 155.968 32.9872 155.968 33.5284V34.3977C155.968 35.1392 156.096 35.7678 156.352 36.2834C156.612 36.7947 156.972 37.1847 157.432 37.4531C157.892 37.7173 158.427 37.8494 159.036 37.8494C159.433 37.8494 159.79 37.794 160.11 37.6832C160.434 37.5682 160.713 37.3977 160.947 37.1719C161.182 36.9418 161.363 36.6562 161.491 36.3153L162.948 36.7244C162.795 37.2188 162.537 37.6534 162.175 38.0284C161.813 38.3991 161.365 38.6889 160.832 38.8977C160.3 39.1023 159.701 39.2045 159.036 39.2045ZM169.104 39.2045C168.286 39.2045 167.563 38.9979 166.937 38.5845C166.31 38.1669 165.82 37.5788 165.467 36.8203C165.113 36.0575 164.936 35.1562 164.936 34.1165C164.936 33.0852 165.113 32.1903 165.467 31.4318C165.82 30.6733 166.313 30.0874 166.943 29.674C167.574 29.2607 168.303 29.054 169.129 29.054C169.768 29.054 170.273 29.1605 170.644 29.3736C171.019 29.5824 171.305 29.821 171.501 30.0895C171.701 30.3537 171.857 30.571 171.967 30.7415H172.095V25.9091H173.604V39H172.146V37.4915H171.967C171.857 37.6705 171.699 37.8963 171.494 38.169C171.29 38.4375 170.998 38.6783 170.619 38.8913C170.239 39.1001 169.734 39.2045 169.104 39.2045ZM169.308 37.8494C169.913 37.8494 170.425 37.6918 170.842 37.3764C171.26 37.0568 171.577 36.6158 171.795 36.0533C172.012 35.4865 172.121 34.8324 172.121 34.0909C172.121 33.358 172.014 32.7166 171.801 32.1669C171.588 31.6129 171.273 31.1825 170.855 30.8757C170.438 30.5646 169.922 30.4091 169.308 30.4091C168.669 30.4091 168.136 30.5732 167.71 30.9013C167.288 31.2251 166.971 31.6662 166.758 32.2244C166.549 32.7784 166.445 33.4006 166.445 34.0909C166.445 34.7898 166.551 35.4247 166.764 35.9957C166.982 36.5625 167.301 37.0142 167.723 37.3509C168.149 37.6832 168.678 37.8494 169.308 37.8494ZM176.576 39V29.1818H178.085V39H176.576ZM177.343 27.5455C177.049 27.5455 176.795 27.4453 176.582 27.245C176.374 27.0447 176.269 26.804 176.269 26.5227C176.269 26.2415 176.374 26.0007 176.582 25.8004C176.795 25.6001 177.049 25.5 177.343 25.5C177.637 25.5 177.888 25.6001 178.097 25.8004C178.31 26.0007 178.417 26.2415 178.417 26.5227C178.417 26.804 178.31 27.0447 178.097 27.245C177.888 27.4453 177.637 27.5455 177.343 27.5455ZM184.836 39.2045C183.916 39.2045 183.123 38.9872 182.458 38.5526C181.794 38.1179 181.282 37.5192 180.924 36.7564C180.566 35.9936 180.387 35.1222 180.387 34.142C180.387 33.1449 180.57 32.2649 180.937 31.5021C181.308 30.7351 181.823 30.1364 182.484 29.706C183.149 29.2713 183.924 29.054 184.811 29.054C185.501 29.054 186.123 29.1818 186.677 29.4375C187.231 29.6932 187.685 30.0511 188.039 30.5114C188.392 30.9716 188.612 31.5085 188.697 32.1222H187.188C187.073 31.6747 186.818 31.2784 186.421 30.9332C186.029 30.5838 185.501 30.4091 184.836 30.4091C184.248 30.4091 183.732 30.5625 183.289 30.8693C182.85 31.1719 182.507 31.6001 182.26 32.1541C182.017 32.7038 181.896 33.3494 181.896 34.0909C181.896 34.8494 182.015 35.5099 182.254 36.0724C182.497 36.6349 182.838 37.0717 183.276 37.3828C183.72 37.6939 184.24 37.8494 184.836 37.8494C185.228 37.8494 185.584 37.7812 185.904 37.6449C186.223 37.5085 186.494 37.3125 186.715 37.0568C186.937 36.8011 187.095 36.4943 187.188 36.1364H188.697C188.612 36.7159 188.401 37.2379 188.064 37.7024C187.732 38.1626 187.291 38.5291 186.741 38.8018C186.195 39.0703 185.561 39.2045 184.836 39.2045ZM190.902 39V29.1818H192.411V39H190.902ZM191.669 27.5455C191.375 27.5455 191.122 27.4453 190.909 27.245C190.7 27.0447 190.595 26.804 190.595 26.5227C190.595 26.2415 190.7 26.0007 190.909 25.8004C191.122 25.6001 191.375 25.5 191.669 25.5C191.963 25.5 192.215 25.6001 192.423 25.8004C192.637 26.0007 192.743 26.2415 192.743 26.5227C192.743 26.804 192.637 27.0447 192.423 27.245C192.215 27.4453 191.963 27.5455 191.669 27.5455ZM196.682 33.0938V39H195.174V29.1818H196.631V30.7159H196.759C196.989 30.2173 197.338 29.8168 197.807 29.5142C198.276 29.2074 198.881 29.054 199.623 29.054C200.287 29.054 200.869 29.1903 201.368 29.4631C201.866 29.7315 202.254 30.1406 202.531 30.6903C202.808 31.2358 202.946 31.9261 202.946 32.7614V39H201.438V32.8636C201.438 32.0923 201.238 31.4915 200.837 31.0611C200.436 30.6264 199.887 30.4091 199.188 30.4091C198.706 30.4091 198.276 30.5135 197.897 30.7223C197.522 30.9311 197.225 31.2358 197.008 31.6364C196.791 32.0369 196.682 32.5227 196.682 33.0938ZM209.819 39.2045C208.873 39.2045 208.057 38.9957 207.371 38.5781C206.689 38.1562 206.163 37.5682 205.792 36.8139C205.426 36.0554 205.243 35.1733 205.243 34.1676C205.243 33.1619 205.426 32.2756 205.792 31.5085C206.163 30.7372 206.679 30.1364 207.339 29.706C208.004 29.2713 208.78 29.054 209.666 29.054C210.177 29.054 210.682 29.1392 211.181 29.3097C211.68 29.4801 212.133 29.7571 212.542 30.1406C212.952 30.5199 213.278 31.0227 213.52 31.6491C213.763 32.2756 213.885 33.0469 213.885 33.9631V34.6023H206.317V33.2983H212.351C212.351 32.7443 212.24 32.25 212.018 31.8153C211.801 31.3807 211.49 31.0376 211.085 30.7862C210.684 30.5348 210.211 30.4091 209.666 30.4091C209.065 30.4091 208.545 30.5582 208.106 30.8565C207.672 31.1506 207.337 31.5341 207.103 32.0071C206.868 32.4801 206.751 32.9872 206.751 33.5284V34.3977C206.751 35.1392 206.879 35.7678 207.135 36.2834C207.395 36.7947 207.755 37.1847 208.215 37.4531C208.675 37.7173 209.21 37.8494 209.819 37.8494C210.216 37.8494 210.574 37.794 210.893 37.6832C211.217 37.5682 211.496 37.3977 211.731 37.1719C211.965 36.9418 212.146 36.6562 212.274 36.3153L213.731 36.7244C213.578 37.2188 213.32 37.6534 212.958 38.0284C212.596 38.3991 212.148 38.6889 211.616 38.8977C211.083 39.1023 210.484 39.2045 209.819 39.2045Z" fill="#0E1D0B"/>
<path d="M64 146C64 163.673 49.6731 178 32 178C14.3269 178 0 163.673 0 146C0 128.327 14.3269 114 32 114C49.6731 114 64 128.327 64 146Z" fill="#FFE9E9"/>
<path d="M36.5074 140.299C34.1449 137.402 33.1006 134.938 32.5024 133.468C32.3131 133.005 31.6849 133.005 31.4974 133.468C30.8993 134.938 29.8549 137.402 27.4924 140.299C26.0131 142.114 24.5543 144.771 24.5543 147.388C24.5543 151.854 27.7774 154.879 31.9999 154.879C36.2224 154.879 39.4456 151.853 39.4456 147.388C39.4456 144.668 37.9868 142.114 36.5074 140.299Z" fill="#E5322E"/>
<path d="M34.0587 146.97C35.2493 144.705 35.0806 142.489 36.0218 142.888C37.3006 143.434 38.7162 146.237 38.1856 148.778C37.8068 150.589 36.5843 151.686 35.0262 151.163C33.7681 150.741 32.9862 149.01 34.0587 146.97Z" fill="#FF6050"/>
<path d="M85.233 151.5V141.318H88.7926C89.5019 141.318 90.0869 141.441 90.5476 141.686C91.0083 141.928 91.3513 142.254 91.5767 142.665C91.8021 143.073 91.9148 143.526 91.9148 144.023C91.9148 144.46 91.8369 144.821 91.6811 145.107C91.5286 145.392 91.3265 145.617 91.0746 145.783C90.826 145.948 90.5559 146.071 90.2642 146.151V146.25C90.5758 146.27 90.889 146.379 91.2038 146.578C91.5187 146.777 91.7822 147.062 91.9943 147.433C92.2064 147.804 92.3125 148.259 92.3125 148.795C92.3125 149.306 92.1965 149.765 91.9645 150.173C91.7325 150.58 91.3662 150.903 90.8658 151.142C90.3653 151.381 89.714 151.5 88.9119 151.5H85.233ZM86.4659 150.406H88.9119C89.7173 150.406 90.2891 150.25 90.6271 149.939C90.9685 149.624 91.1392 149.243 91.1392 148.795C91.1392 148.451 91.0514 148.133 90.8757 147.841C90.7 147.546 90.4498 147.311 90.125 147.135C89.8002 146.956 89.4157 146.866 88.9716 146.866H86.4659V150.406ZM86.4659 145.793H88.7528C89.1241 145.793 89.4588 145.72 89.7571 145.574C90.0587 145.428 90.2973 145.223 90.473 144.957C90.652 144.692 90.7415 144.381 90.7415 144.023C90.7415 143.575 90.5857 143.196 90.2741 142.884C89.9626 142.569 89.4688 142.412 88.7926 142.412H86.4659V145.793ZM95.3526 141.318V151.5H94.1793V141.318H95.3526ZM100.604 151.659C99.9145 151.659 99.3096 151.495 98.7892 151.167C98.2722 150.839 97.8678 150.38 97.5762 149.79C97.2878 149.2 97.1436 148.51 97.1436 147.722C97.1436 146.926 97.2878 146.232 97.5762 145.638C97.8678 145.045 98.2722 144.585 98.7892 144.256C99.3096 143.928 99.9145 143.764 100.604 143.764C101.293 143.764 101.896 143.928 102.414 144.256C102.934 144.585 103.338 145.045 103.627 145.638C103.918 146.232 104.064 146.926 104.064 147.722C104.064 148.51 103.918 149.2 103.627 149.79C103.338 150.38 102.934 150.839 102.414 151.167C101.896 151.495 101.293 151.659 100.604 151.659ZM100.604 150.605C101.128 150.605 101.558 150.471 101.896 150.202C102.235 149.934 102.485 149.581 102.647 149.143C102.81 148.706 102.891 148.232 102.891 147.722C102.891 147.211 102.81 146.736 102.647 146.295C102.485 145.854 102.235 145.498 101.896 145.226C101.558 144.954 101.128 144.818 100.604 144.818C100.08 144.818 99.6493 144.954 99.3113 145.226C98.9732 145.498 98.723 145.854 98.5605 146.295C98.3981 146.736 98.3169 147.211 98.3169 147.722C98.3169 148.232 98.3981 148.706 98.5605 149.143C98.723 149.581 98.9732 149.934 99.3113 150.202C99.6493 150.471 100.08 150.605 100.604 150.605ZM108.957 151.659C108.268 151.659 107.663 151.495 107.143 151.167C106.626 150.839 106.221 150.38 105.93 149.79C105.641 149.2 105.497 148.51 105.497 147.722C105.497 146.926 105.641 146.232 105.93 145.638C106.221 145.045 106.626 144.585 107.143 144.256C107.663 143.928 108.268 143.764 108.957 143.764C109.647 143.764 110.25 143.928 110.767 144.256C111.287 144.585 111.692 145.045 111.98 145.638C112.272 146.232 112.418 146.926 112.418 147.722C112.418 148.51 112.272 149.2 111.98 149.79C111.692 150.38 111.287 150.839 110.767 151.167C110.25 151.495 109.647 151.659 108.957 151.659ZM108.957 150.605C109.481 150.605 109.912 150.471 110.25 150.202C110.588 149.934 110.838 149.581 111.001 149.143C111.163 148.706 111.244 148.232 111.244 147.722C111.244 147.211 111.163 146.736 111.001 146.295C110.838 145.854 110.588 145.498 110.25 145.226C109.912 144.954 109.481 144.818 108.957 144.818C108.434 144.818 108.003 144.954 107.665 145.226C107.327 145.498 107.076 145.854 106.914 146.295C106.752 146.736 106.67 147.211 106.67 147.722C106.67 148.232 106.752 148.706 106.914 149.143C107.076 149.581 107.327 149.934 107.665 150.202C108.003 150.471 108.434 150.605 108.957 150.605ZM117.092 151.659C116.456 151.659 115.894 151.498 115.407 151.177C114.92 150.852 114.538 150.395 114.263 149.805C113.988 149.211 113.851 148.51 113.851 147.702C113.851 146.9 113.988 146.204 114.263 145.614C114.538 145.024 114.921 144.568 115.412 144.246C115.902 143.925 116.469 143.764 117.112 143.764C117.609 143.764 118.002 143.847 118.29 144.013C118.582 144.175 118.804 144.361 118.956 144.57C119.112 144.775 119.233 144.944 119.319 145.077H119.419V141.318H120.592V151.5H119.459V150.327H119.319C119.233 150.466 119.111 150.642 118.952 150.854C118.792 151.062 118.565 151.25 118.27 151.415C117.975 151.578 117.583 151.659 117.092 151.659ZM117.251 150.605C117.722 150.605 118.12 150.482 118.444 150.237C118.769 149.989 119.016 149.646 119.185 149.208C119.354 148.767 119.439 148.259 119.439 147.682C119.439 147.112 119.356 146.613 119.19 146.185C119.024 145.754 118.779 145.42 118.454 145.181C118.13 144.939 117.729 144.818 117.251 144.818C116.754 144.818 116.34 144.946 116.008 145.201C115.68 145.453 115.433 145.796 115.268 146.23C115.105 146.661 115.024 147.145 115.024 147.682C115.024 148.225 115.107 148.719 115.273 149.163C115.442 149.604 115.69 149.955 116.018 150.217C116.35 150.476 116.761 150.605 117.251 150.605ZM131.356 151.5H130.063L133.802 141.318H135.074L138.813 151.5H137.52L134.478 142.929H134.398L131.356 151.5ZM131.833 147.523H137.043V148.616H131.833V147.523ZM140.24 151.5V143.864H141.373V145.017H141.453C141.592 144.639 141.844 144.333 142.209 144.097C142.573 143.862 142.984 143.744 143.442 143.744C143.528 143.744 143.635 143.746 143.765 143.749C143.894 143.753 143.992 143.758 144.058 143.764V144.957C144.018 144.947 143.927 144.933 143.785 144.913C143.645 144.889 143.498 144.878 143.342 144.878C142.971 144.878 142.64 144.956 142.348 145.112C142.059 145.264 141.831 145.476 141.662 145.748C141.496 146.016 141.413 146.323 141.413 146.668V151.5H140.24ZM148.418 151.659C147.682 151.659 147.048 151.497 146.514 151.172C145.984 150.844 145.574 150.386 145.286 149.8C145.001 149.21 144.858 148.524 144.858 147.741C144.858 146.959 145.001 146.27 145.286 145.673C145.574 145.073 145.975 144.606 146.489 144.271C147.006 143.933 147.609 143.764 148.299 143.764C148.697 143.764 149.089 143.83 149.477 143.963C149.865 144.096 150.218 144.311 150.536 144.609C150.854 144.904 151.108 145.295 151.297 145.783C151.486 146.27 151.58 146.87 151.58 147.582V148.08H145.694V147.065H150.387C150.387 146.634 150.301 146.25 150.128 145.912C149.959 145.574 149.717 145.307 149.403 145.112C149.091 144.916 148.723 144.818 148.299 144.818C147.831 144.818 147.427 144.934 147.086 145.166C146.748 145.395 146.488 145.693 146.305 146.061C146.123 146.429 146.032 146.823 146.032 147.244V147.92C146.032 148.497 146.131 148.986 146.33 149.387C146.532 149.785 146.812 150.088 147.17 150.297C147.528 150.502 147.944 150.605 148.418 150.605C148.726 150.605 149.005 150.562 149.253 150.476C149.505 150.386 149.722 150.254 149.905 150.078C150.087 149.899 150.228 149.677 150.327 149.412L151.461 149.73C151.341 150.115 151.141 150.453 150.859 150.744C150.577 151.033 150.229 151.258 149.815 151.42C149.401 151.58 148.935 151.659 148.418 151.659ZM154.538 146.906V151.5H153.365V143.864H154.498V145.057H154.598C154.777 144.669 155.049 144.357 155.413 144.122C155.778 143.884 156.248 143.764 156.825 143.764C157.342 143.764 157.795 143.87 158.182 144.082C158.57 144.291 158.872 144.609 159.087 145.037C159.303 145.461 159.41 145.998 159.41 146.648V151.5H158.237V146.727C158.237 146.127 158.081 145.66 157.77 145.325C157.458 144.987 157.031 144.818 156.487 144.818C156.113 144.818 155.778 144.899 155.483 145.062C155.191 145.224 154.961 145.461 154.792 145.773C154.623 146.084 154.538 146.462 154.538 146.906ZM163.801 151.679C163.318 151.679 162.878 151.588 162.484 151.406C162.09 151.22 161.776 150.953 161.544 150.605C161.312 150.254 161.196 149.83 161.196 149.332C161.196 148.895 161.283 148.54 161.455 148.268C161.627 147.993 161.858 147.778 162.146 147.622C162.434 147.466 162.752 147.35 163.1 147.274C163.452 147.195 163.805 147.132 164.159 147.085C164.623 147.026 165 146.981 165.288 146.951C165.58 146.918 165.792 146.863 165.924 146.787C166.06 146.711 166.128 146.578 166.128 146.389V146.349C166.128 145.859 165.994 145.478 165.725 145.206C165.46 144.934 165.058 144.798 164.517 144.798C163.957 144.798 163.518 144.921 163.2 145.166C162.882 145.411 162.658 145.673 162.529 145.952L161.415 145.554C161.614 145.09 161.879 144.729 162.211 144.47C162.545 144.208 162.91 144.026 163.304 143.923C163.702 143.817 164.093 143.764 164.478 143.764C164.723 143.764 165.005 143.794 165.323 143.854C165.644 143.91 165.954 144.028 166.252 144.207C166.554 144.386 166.804 144.656 167.003 145.017C167.202 145.378 167.301 145.862 167.301 146.469V151.5H166.128V150.466H166.069C165.989 150.632 165.856 150.809 165.671 150.998C165.485 151.187 165.238 151.348 164.93 151.48C164.622 151.613 164.246 151.679 163.801 151.679ZM163.98 150.625C164.444 150.625 164.836 150.534 165.154 150.352C165.475 150.169 165.717 149.934 165.88 149.646C166.045 149.357 166.128 149.054 166.128 148.736V147.662C166.078 147.722 165.969 147.776 165.8 147.826C165.634 147.872 165.442 147.914 165.223 147.95C165.008 147.983 164.797 148.013 164.592 148.04C164.39 148.063 164.226 148.083 164.1 148.099C163.795 148.139 163.51 148.204 163.245 148.293C162.983 148.379 162.771 148.51 162.608 148.686C162.449 148.858 162.37 149.094 162.37 149.392C162.37 149.8 162.52 150.108 162.822 150.317C163.127 150.522 163.513 150.625 163.98 150.625Z" fill="#0E1D0B"/>
<path d="M64 260C64 277.673 49.6731 292 32 292C14.3269 292 0 277.673 0 260C0 242.327 14.3269 228 32 228C49.6731 228 64 242.327 64 260Z" fill="#FFE9E9"/>
<path d="M30.5 257H27.4835C27.255 257 27.0296 257.052 26.8244 257.152C26.6191 257.253 26.4395 257.399 26.2993 257.579L22.1322 262.938C21.7227 263.464 21.5002 264.112 21.5 264.779V266.75C21.5 267.148 21.658 267.529 21.9393 267.811C22.2206 268.092 22.6022 268.25 23 268.25H30.74C30.74 262.781 31.3385 257.816 30.5 257Z" fill="#E6E6E6"/>
<path d="M31.1675 254.651C30.9557 254.86 30.7876 255.109 30.673 255.383C30.5584 255.658 30.4996 255.953 30.5 256.25V263.818H42.5V255.5C42.5005 255.197 42.4087 254.901 42.2368 254.651H31.1668H31.1675Z" fill="#F92F60"/>
<path d="M32.75 254C32.4334 254 32.1202 254.066 31.8312 254.195C31.5421 254.325 31.2837 254.514 31.073 254.75H42.299C42.1674 254.522 41.978 254.333 41.75 254.201C41.522 254.069 41.2633 254 41 254H32.75ZM42.5 263.75H30.5V268.25H41C41.3978 268.25 41.7794 268.092 42.0607 267.811C42.342 267.529 42.5 267.148 42.5 266.75V263.75Z" fill="#D3D3D3"/>
<path d="M29 267.875C29 268.571 28.7234 269.239 28.2312 269.731C27.7389 270.223 27.0712 270.5 26.375 270.5C25.6788 270.5 25.0111 270.223 24.5188 269.731C24.0266 269.239 23.75 268.571 23.75 267.875C23.75 267.179 24.0266 266.511 24.5188 266.019C25.0111 265.527 25.6788 265.25 26.375 265.25C27.0712 265.25 27.7389 265.527 28.2312 266.019C28.7234 266.511 29 267.179 29 267.875ZM40.25 267.875C40.25 268.571 39.9734 269.239 39.4812 269.731C38.9889 270.223 38.3212 270.5 37.625 270.5C36.9288 270.5 36.2611 270.223 35.7688 269.731C35.2766 269.239 35 268.571 35 267.875C35 267.179 35.2766 266.511 35.7688 266.019C36.2611 265.527 36.9288 265.25 37.625 265.25C38.3212 265.25 38.9889 265.527 39.4812 266.019C39.9734 266.511 40.25 267.179 40.25 267.875Z" fill="#433B6B"/>
<path d="M27.5 267.875C27.5 268.173 27.3815 268.46 27.1705 268.67C26.9595 268.881 26.6734 269 26.375 269C26.0766 269 25.7905 268.881 25.5795 268.67C25.3685 268.46 25.25 268.173 25.25 267.875C25.25 267.577 25.3685 267.29 25.5795 267.08C25.7905 266.869 26.0766 266.75 26.375 266.75C26.6734 266.75 26.9595 266.869 27.1705 267.08C27.3815 267.29 27.5 267.577 27.5 267.875ZM38.75 267.875C38.75 268.023 38.7209 268.169 38.6644 268.306C38.6078 268.442 38.525 268.566 38.4205 268.67C38.316 268.775 38.192 268.858 38.0555 268.914C37.919 268.971 37.7727 269 37.625 269C37.4773 269 37.331 268.971 37.1945 268.914C37.058 268.858 36.934 268.775 36.8295 268.67C36.725 268.566 36.6422 268.442 36.5856 268.306C36.5291 268.169 36.5 268.023 36.5 267.875C36.5 267.577 36.6185 267.29 36.8295 267.08C37.0405 266.869 37.3266 266.75 37.625 266.75C37.9234 266.75 38.2095 266.869 38.4205 267.08C38.6315 267.29 38.75 267.577 38.75 267.875ZM36.5 257C36.3011 257 36.1103 257.079 35.9697 257.22C35.829 257.36 35.75 257.551 35.75 257.75V258.5H35C34.8011 258.5 34.6103 258.579 34.4697 258.72C34.329 258.86 34.25 259.051 34.25 259.25C34.25 259.449 34.329 259.64 34.4697 259.78C34.6103 259.921 34.8011 260 35 260H35.75V260.75C35.75 260.949 35.829 261.14 35.9697 261.28C36.1103 261.421 36.3011 261.5 36.5 261.5C36.6989 261.5 36.8897 261.421 37.0303 261.28C37.171 261.14 37.25 260.949 37.25 260.75V260H38C38.1989 260 38.3897 259.921 38.5303 259.78C38.671 259.64 38.75 259.449 38.75 259.25C38.75 259.051 38.671 258.86 38.5303 258.72C38.3897 258.579 38.1989 258.5 38 258.5H37.25V257.75C37.25 257.551 37.171 257.36 37.0303 257.22C36.8897 257.079 36.6989 257 36.5 257Z" fill="#F4F4F4"/>
<path d="M22.25 266.75H21.5V264.779C21.5001 264.428 21.5618 264.08 21.6823 263.75H22.25C22.4489 263.75 22.6397 263.829 22.7803 263.97C22.921 264.11 23 264.301 23 264.5V266C23 266.199 22.921 266.39 22.7803 266.53C22.6397 266.671 22.4489 266.75 22.25 266.75ZM42.125 264.5C41.8266 264.5 41.5405 264.619 41.3295 264.83C41.1185 265.04 41 265.327 41 265.625C41 265.923 41.1185 266.21 41.3295 266.42C41.5405 266.631 41.8266 266.75 42.125 266.75H42.5V264.5H42.125Z" fill="#FF822D"/>
<path d="M23.2498 261.5H28.25C28.6478 261.5 29.0294 261.342 29.3107 261.061C29.592 260.779 29.75 260.398 29.75 260V258.5C29.75 258.301 29.671 258.11 29.5303 257.97C29.3897 257.829 29.1989 257.75 29 257.75H26.1665L23.2498 261.5Z" fill="#26C9FC"/>
<path d="M27.5 257C27.5 256.801 27.579 256.61 27.7197 256.47C27.8603 256.329 28.0511 256.25 28.25 256.25H29.75C29.9489 256.25 30.1397 256.329 30.2803 256.47C30.421 256.61 30.5 256.801 30.5 257H27.5Z" fill="#D3D3D3"/>
<path d="M28.25 256.25C28.25 256.051 28.329 255.86 28.4697 255.72C28.6103 255.579 28.8011 255.5 29 255.5C29.1989 255.5 29.3897 255.579 29.5303 255.72C29.671 255.86 29.75 256.051 29.75 256.25H28.25Z" fill="#F8312F"/>
<path d="M85.233 265.5V255.318H91.3778V256.412H86.4659V259.852H91.0597V260.946H86.4659V264.406H91.4574V265.5H85.233ZM93.4411 265.5V257.864H94.5746V259.057H94.674C94.8331 258.649 95.09 258.333 95.4446 258.107C95.7992 257.879 96.2251 257.764 96.7223 257.764C97.2261 257.764 97.6454 257.879 97.9801 258.107C98.3182 258.333 98.5817 258.649 98.7706 259.057H98.8501C99.0457 258.662 99.339 258.349 99.7301 258.117C100.121 257.882 100.59 257.764 101.137 257.764C101.82 257.764 102.378 257.978 102.812 258.406C103.247 258.83 103.464 259.491 103.464 260.389V265.5H102.29V260.389C102.29 259.826 102.136 259.423 101.828 259.181C101.52 258.939 101.157 258.818 100.739 258.818C100.202 258.818 99.7865 258.981 99.4915 259.305C99.1965 259.627 99.049 260.035 99.049 260.528V265.5H97.8558V260.27C97.8558 259.836 97.715 259.486 97.4332 259.221C97.1515 258.952 96.7886 258.818 96.3445 258.818C96.0395 258.818 95.7545 258.899 95.4893 259.062C95.2275 259.224 95.0154 259.45 94.853 259.738C94.6939 260.023 94.6143 260.353 94.6143 260.727V265.5H93.4411ZM108.811 265.659C108.075 265.659 107.44 265.497 106.907 265.172C106.376 264.844 105.967 264.386 105.679 263.8C105.394 263.21 105.251 262.524 105.251 261.741C105.251 260.959 105.394 260.27 105.679 259.673C105.967 259.073 106.368 258.606 106.882 258.271C107.399 257.933 108.002 257.764 108.691 257.764C109.089 257.764 109.482 257.83 109.87 257.963C110.257 258.096 110.61 258.311 110.929 258.609C111.247 258.904 111.5 259.295 111.689 259.783C111.878 260.27 111.973 260.87 111.973 261.582V262.08H106.086V261.065H110.779C110.779 260.634 110.693 260.25 110.521 259.912C110.352 259.574 110.11 259.307 109.795 259.112C109.484 258.916 109.116 258.818 108.691 258.818C108.224 258.818 107.82 258.934 107.478 259.166C107.14 259.395 106.88 259.693 106.698 260.061C106.516 260.429 106.424 260.823 106.424 261.244V261.92C106.424 262.497 106.524 262.986 106.723 263.387C106.925 263.785 107.205 264.088 107.563 264.297C107.921 264.502 108.337 264.605 108.811 264.605C109.119 264.605 109.397 264.562 109.646 264.476C109.898 264.386 110.115 264.254 110.297 264.078C110.48 263.899 110.62 263.677 110.72 263.412L111.853 263.73C111.734 264.115 111.533 264.453 111.252 264.744C110.97 265.033 110.622 265.258 110.208 265.42C109.793 265.58 109.328 265.659 108.811 265.659ZM113.757 265.5V257.864H114.891V259.017H114.971C115.11 258.639 115.362 258.333 115.726 258.097C116.091 257.862 116.502 257.744 116.959 257.744C117.045 257.744 117.153 257.746 117.282 257.749C117.412 257.753 117.509 257.758 117.576 257.764V258.957C117.536 258.947 117.445 258.933 117.302 258.913C117.163 258.889 117.016 258.878 116.86 258.878C116.489 258.878 116.157 258.956 115.865 259.112C115.577 259.264 115.348 259.476 115.179 259.748C115.014 260.016 114.931 260.323 114.931 260.668V265.5H113.757ZM121.816 268.523C121.25 268.523 120.762 268.45 120.355 268.304C119.947 268.161 119.607 267.973 119.336 267.737C119.067 267.505 118.853 267.257 118.694 266.991L119.629 266.335C119.735 266.474 119.869 266.634 120.032 266.812C120.194 266.995 120.416 267.152 120.698 267.285C120.983 267.421 121.356 267.489 121.816 267.489C122.433 267.489 122.942 267.339 123.343 267.041C123.744 266.743 123.944 266.276 123.944 265.639V264.088H123.845C123.759 264.227 123.636 264.4 123.477 264.605C123.321 264.807 123.096 264.988 122.801 265.147C122.509 265.303 122.115 265.381 121.618 265.381C121.001 265.381 120.448 265.235 119.957 264.943C119.47 264.652 119.084 264.227 118.799 263.67C118.517 263.114 118.376 262.437 118.376 261.642C118.376 260.86 118.514 260.179 118.789 259.599C119.064 259.015 119.447 258.565 119.937 258.246C120.428 257.925 120.994 257.764 121.637 257.764C122.135 257.764 122.529 257.847 122.821 258.013C123.116 258.175 123.341 258.361 123.497 258.57C123.656 258.775 123.779 258.944 123.865 259.077H123.984V257.864H125.118V265.719C125.118 266.375 124.968 266.909 124.67 267.32C124.375 267.734 123.977 268.037 123.477 268.229C122.98 268.425 122.426 268.523 121.816 268.523ZM121.777 264.327C122.247 264.327 122.645 264.219 122.97 264.004C123.295 263.788 123.542 263.478 123.711 263.074C123.88 262.67 123.964 262.186 123.964 261.622C123.964 261.072 123.881 260.586 123.716 260.165C123.55 259.745 123.305 259.415 122.98 259.176C122.655 258.937 122.254 258.818 121.777 258.818C121.279 258.818 120.865 258.944 120.534 259.196C120.206 259.448 119.959 259.786 119.793 260.21C119.631 260.634 119.549 261.105 119.549 261.622C119.549 262.152 119.632 262.621 119.798 263.029C119.967 263.433 120.216 263.752 120.544 263.984C120.875 264.212 121.286 264.327 121.777 264.327ZM130.467 265.659C129.731 265.659 129.096 265.497 128.563 265.172C128.033 264.844 127.623 264.386 127.335 263.8C127.05 263.21 126.907 262.524 126.907 261.741C126.907 260.959 127.05 260.27 127.335 259.673C127.623 259.073 128.024 258.606 128.538 258.271C129.055 257.933 129.658 257.764 130.348 257.764C130.745 257.764 131.138 257.83 131.526 257.963C131.914 258.096 132.267 258.311 132.585 258.609C132.903 258.904 133.157 259.295 133.346 259.783C133.534 260.27 133.629 260.87 133.629 261.582V262.08H127.743V261.065H132.436C132.436 260.634 132.35 260.25 132.177 259.912C132.008 259.574 131.766 259.307 131.451 259.112C131.14 258.916 130.772 258.818 130.348 258.818C129.88 258.818 129.476 258.934 129.135 259.166C128.797 259.395 128.536 259.693 128.354 260.061C128.172 260.429 128.081 260.823 128.081 261.244V261.92C128.081 262.497 128.18 262.986 128.379 263.387C128.581 263.785 128.861 264.088 129.219 264.297C129.577 264.502 129.993 264.605 130.467 264.605C130.775 264.605 131.054 264.562 131.302 264.476C131.554 264.386 131.771 264.254 131.953 264.078C132.136 263.899 132.277 263.677 132.376 263.412L133.51 263.73C133.39 264.115 133.19 264.453 132.908 264.744C132.626 265.033 132.278 265.258 131.864 265.42C131.45 265.58 130.984 265.659 130.467 265.659ZM136.587 260.906V265.5H135.414V257.864H136.547V259.057H136.647C136.826 258.669 137.097 258.357 137.462 258.122C137.827 257.884 138.297 257.764 138.874 257.764C139.391 257.764 139.843 257.87 140.231 258.082C140.619 258.291 140.921 258.609 141.136 259.037C141.351 259.461 141.459 259.998 141.459 260.648V265.5H140.286V260.727C140.286 260.127 140.13 259.66 139.819 259.325C139.507 258.987 139.079 258.818 138.536 258.818C138.161 258.818 137.827 258.899 137.532 259.062C137.24 259.224 137.01 259.461 136.841 259.773C136.672 260.084 136.587 260.462 136.587 260.906ZM146.705 265.659C145.99 265.659 145.373 265.49 144.856 265.152C144.339 264.814 143.941 264.348 143.663 263.755C143.384 263.162 143.245 262.484 143.245 261.722C143.245 260.946 143.388 260.262 143.673 259.668C143.961 259.072 144.362 258.606 144.876 258.271C145.393 257.933 145.996 257.764 146.686 257.764C147.222 257.764 147.706 257.864 148.137 258.062C148.568 258.261 148.921 258.54 149.196 258.898C149.471 259.256 149.642 259.673 149.708 260.151H148.535C148.445 259.803 148.247 259.494 147.938 259.226C147.633 258.954 147.222 258.818 146.705 258.818C146.248 258.818 145.847 258.937 145.502 259.176C145.161 259.411 144.894 259.745 144.702 260.175C144.513 260.603 144.419 261.105 144.419 261.682C144.419 262.272 144.511 262.786 144.697 263.223C144.886 263.661 145.151 264 145.492 264.242C145.837 264.484 146.241 264.605 146.705 264.605C147.01 264.605 147.287 264.552 147.536 264.446C147.784 264.34 147.995 264.188 148.167 263.989C148.339 263.79 148.462 263.551 148.535 263.273H149.708C149.642 263.723 149.478 264.129 149.216 264.491C148.958 264.849 148.615 265.134 148.187 265.346C147.763 265.555 147.269 265.659 146.705 265.659ZM152.179 268.364C151.98 268.364 151.803 268.347 151.647 268.314C151.491 268.284 151.384 268.254 151.324 268.224L151.622 267.19C151.907 267.263 152.159 267.29 152.378 267.27C152.597 267.25 152.791 267.152 152.96 266.977C153.132 266.804 153.289 266.524 153.432 266.136L153.651 265.54L150.827 257.864H152.1L154.208 263.949H154.287L156.395 257.864H157.668L154.426 266.614C154.28 267.008 154.1 267.335 153.884 267.593C153.669 267.855 153.419 268.049 153.134 268.175C152.852 268.301 152.534 268.364 152.179 268.364Z" fill="#0E1D0B"/>
<path d="M64 374C64 391.673 49.6731 406 32 406C14.3269 406 0 391.673 0 374C0 356.327 14.3269 342 32 342C49.6731 342 64 356.327 64 374Z" fill="#FFE9E9"/>
<path d="M43 380C43 383.31 40.31 386 37 386V384.5C39.5 384.5 41.5 382.5 41.5 380H43ZM21 370C21 366.69 23.69 364 27 364V365.5C24.5 365.5 22.5 367.5 22.5 370H21ZM28 367.32L23.41 371.92C20.19 375.14 20.19 380.37 23.41 383.59C26.63 386.81 31.86 386.81 35.08 383.59L42.15 376.5C42.64 376.03 42.64 375.24 42.15 374.75C42.0339 374.634 41.8959 374.541 41.7441 374.478C41.5922 374.415 41.4294 374.383 41.265 374.383C41.1006 374.383 40.9378 374.415 40.7859 374.478C40.634 374.541 40.4961 374.634 40.38 374.75L35.96 379.17L35.25 378.46L41.79 371.92C42.28 371.43 42.28 370.64 41.79 370.15C41.3 369.66 40.5 369.66 40 370.15L34.19 376L33.5 375.27L40.37 368.38C40.86 367.89 40.86 367.1 40.37 366.61C39.88 366.12 39.09 366.12 38.6 366.61L31.71 373.5L31 372.8L36.5 367.32C37 366.83 37 366.04 36.5 365.55C36 365.06 35.22 365.06 34.73 365.55L27.11 373.17C27.7066 373.94 28.0023 374.9 27.9415 375.872C27.8808 376.844 27.4678 377.761 26.78 378.45L26.07 377.74C26.6318 377.177 26.9474 376.415 26.9474 375.62C26.9474 374.825 26.6318 374.063 26.07 373.5L25.72 373.15L29.79 369.08C30.28 368.59 30.28 367.8 29.79 367.31C29.29 366.83 28.5 366.83 28 367.32Z" fill="#FB2929"/>
<path d="M87.0824 379.5L84.2983 369.318H85.5511L87.679 377.611H87.7784L89.946 369.318H91.3381L93.5057 377.611H93.6051L95.733 369.318H96.9858L94.2017 379.5H92.929L90.6818 371.386H90.6023L88.3551 379.5H87.0824ZM100.854 379.659C100.118 379.659 99.4832 379.497 98.9496 379.172C98.4193 378.844 98.0099 378.386 97.7216 377.8C97.4366 377.21 97.294 376.524 97.294 375.741C97.294 374.959 97.4366 374.27 97.7216 373.673C98.0099 373.073 98.411 372.606 98.9247 372.271C99.4418 371.933 100.045 371.764 100.734 371.764C101.132 371.764 101.525 371.83 101.913 371.963C102.3 372.096 102.653 372.311 102.972 372.609C103.29 372.904 103.543 373.295 103.732 373.783C103.921 374.27 104.016 374.87 104.016 375.582V376.08H98.1293V375.065H102.822C102.822 374.634 102.736 374.25 102.564 373.912C102.395 373.574 102.153 373.307 101.838 373.112C101.527 372.916 101.159 372.818 100.734 372.818C100.267 372.818 99.8627 372.934 99.5213 373.166C99.1832 373.395 98.9231 373.693 98.7408 374.061C98.5585 374.429 98.4673 374.823 98.4673 375.244V375.92C98.4673 376.497 98.5668 376.986 98.7656 377.387C98.9678 377.785 99.2479 378.088 99.6058 378.297C99.9638 378.502 100.38 378.605 100.854 378.605C101.162 378.605 101.44 378.562 101.689 378.476C101.941 378.386 102.158 378.254 102.34 378.078C102.522 377.899 102.663 377.677 102.763 377.412L103.896 377.73C103.777 378.115 103.576 378.453 103.295 378.744C103.013 379.033 102.665 379.258 102.251 379.42C101.836 379.58 101.371 379.659 100.854 379.659ZM106.974 369.318V379.5H105.8V369.318H106.974ZM110.296 369.318V379.5H109.123V369.318H110.296ZM113.618 374.906V379.5H112.445V371.864H113.578V373.057H113.678C113.857 372.669 114.129 372.357 114.493 372.122C114.858 371.884 115.328 371.764 115.905 371.764C116.422 371.764 116.875 371.87 117.262 372.082C117.65 372.291 117.952 372.609 118.167 373.037C118.383 373.461 118.49 373.998 118.49 374.648V379.5H117.317V374.727C117.317 374.127 117.161 373.66 116.85 373.325C116.538 372.987 116.111 372.818 115.567 372.818C115.193 372.818 114.858 372.899 114.563 373.062C114.271 373.224 114.041 373.461 113.872 373.773C113.703 374.084 113.618 374.462 113.618 374.906ZM123.836 379.659C123.1 379.659 122.466 379.497 121.932 379.172C121.402 378.844 120.992 378.386 120.704 377.8C120.419 377.21 120.276 376.524 120.276 375.741C120.276 374.959 120.419 374.27 120.704 373.673C120.992 373.073 121.393 372.606 121.907 372.271C122.424 371.933 123.027 371.764 123.717 371.764C124.115 371.764 124.507 371.83 124.895 371.963C125.283 372.096 125.636 372.311 125.954 372.609C126.272 372.904 126.526 373.295 126.715 373.783C126.904 374.27 126.998 374.87 126.998 375.582V376.08H121.112V375.065H125.805C125.805 374.634 125.719 374.25 125.546 373.912C125.377 373.574 125.135 373.307 124.82 373.112C124.509 372.916 124.141 372.818 123.717 372.818C123.249 372.818 122.845 372.934 122.504 373.166C122.166 373.395 121.905 373.693 121.723 374.061C121.541 374.429 121.45 374.823 121.45 375.244V375.92C121.45 376.497 121.549 376.986 121.748 377.387C121.95 377.785 122.23 378.088 122.588 378.297C122.946 378.502 123.362 378.605 123.836 378.605C124.144 378.605 124.423 378.562 124.671 378.476C124.923 378.386 125.14 378.254 125.323 378.078C125.505 377.899 125.646 377.677 125.745 377.412L126.879 377.73C126.759 378.115 126.559 378.453 126.277 378.744C125.995 379.033 125.647 379.258 125.233 379.42C124.819 379.58 124.353 379.659 123.836 379.659ZM134.192 373.574L133.138 373.872C133.072 373.696 132.974 373.526 132.845 373.36C132.719 373.191 132.546 373.052 132.328 372.942C132.109 372.833 131.829 372.778 131.487 372.778C131.02 372.778 130.631 372.886 130.319 373.102C130.011 373.314 129.857 373.584 129.857 373.912C129.857 374.204 129.963 374.434 130.175 374.603C130.387 374.772 130.718 374.913 131.169 375.026L132.303 375.304C132.985 375.47 133.494 375.723 133.829 376.065C134.164 376.403 134.331 376.839 134.331 377.372C134.331 377.81 134.205 378.201 133.953 378.545C133.705 378.89 133.357 379.162 132.909 379.361C132.462 379.56 131.941 379.659 131.348 379.659C130.569 379.659 129.925 379.49 129.414 379.152C128.904 378.814 128.581 378.32 128.445 377.67L129.558 377.392C129.664 377.803 129.865 378.111 130.16 378.317C130.458 378.522 130.848 378.625 131.328 378.625C131.875 378.625 132.309 378.509 132.631 378.277C132.956 378.042 133.118 377.76 133.118 377.432C133.118 377.167 133.025 376.945 132.84 376.766C132.654 376.583 132.369 376.447 131.985 376.358L130.712 376.06C130.012 375.894 129.499 375.637 129.171 375.289C128.846 374.938 128.683 374.499 128.683 373.972C128.683 373.541 128.804 373.16 129.046 372.828C129.292 372.497 129.625 372.237 130.046 372.048C130.47 371.859 130.95 371.764 131.487 371.764C132.243 371.764 132.836 371.93 133.267 372.261C133.701 372.593 134.01 373.03 134.192 373.574ZM141.506 373.574L140.452 373.872C140.386 373.696 140.288 373.526 140.159 373.36C140.033 373.191 139.861 373.052 139.642 372.942C139.423 372.833 139.143 372.778 138.802 372.778C138.335 372.778 137.945 372.886 137.634 373.102C137.325 373.314 137.171 373.584 137.171 373.912C137.171 374.204 137.277 374.434 137.489 374.603C137.701 374.772 138.033 374.913 138.484 375.026L139.617 375.304C140.3 375.47 140.809 375.723 141.143 376.065C141.478 376.403 141.646 376.839 141.646 377.372C141.646 377.81 141.52 378.201 141.268 378.545C141.019 378.89 140.671 379.162 140.224 379.361C139.776 379.56 139.256 379.659 138.663 379.659C137.884 379.659 137.239 379.49 136.729 379.152C136.218 378.814 135.895 378.32 135.759 377.67L136.873 377.392C136.979 377.803 137.179 378.111 137.474 378.317C137.773 378.522 138.162 378.625 138.643 378.625C139.19 378.625 139.624 378.509 139.945 378.277C140.27 378.042 140.433 377.76 140.433 377.432C140.433 377.167 140.34 376.945 140.154 376.766C139.969 376.583 139.683 376.447 139.299 376.358L138.026 376.06C137.327 375.894 136.813 375.637 136.485 375.289C136.16 374.938 135.998 374.499 135.998 373.972C135.998 373.541 136.119 373.16 136.361 372.828C136.606 372.497 136.939 372.237 137.36 372.048C137.784 371.859 138.265 371.764 138.802 371.764C139.558 371.764 140.151 371.93 140.582 372.261C141.016 372.593 141.324 373.03 141.506 373.574ZM150.67 371.864V372.858H146.713V371.864H150.67ZM147.866 370.034H149.04V377.312C149.04 377.644 149.088 377.893 149.184 378.058C149.283 378.221 149.409 378.33 149.562 378.386C149.717 378.439 149.881 378.466 150.054 378.466C150.183 378.466 150.289 378.459 150.372 378.446C150.455 378.429 150.521 378.416 150.571 378.406L150.809 379.46C150.73 379.49 150.619 379.52 150.476 379.55C150.334 379.583 150.153 379.599 149.934 379.599C149.603 379.599 149.278 379.528 148.96 379.386C148.645 379.243 148.383 379.026 148.175 378.734C147.969 378.443 147.866 378.075 147.866 377.631V370.034ZM152.435 379.5V371.864H153.608V379.5H152.435ZM153.032 370.591C152.803 370.591 152.606 370.513 152.44 370.357C152.278 370.201 152.197 370.014 152.197 369.795C152.197 369.577 152.278 369.389 152.44 369.234C152.606 369.078 152.803 369 153.032 369C153.26 369 153.456 369.078 153.618 369.234C153.784 369.389 153.867 369.577 153.867 369.795C153.867 370.014 153.784 370.201 153.618 370.357C153.456 370.513 153.26 370.591 153.032 370.591ZM155.757 382.364V371.864H156.891V373.077H157.03C157.116 372.944 157.236 372.775 157.388 372.57C157.544 372.361 157.766 372.175 158.054 372.013C158.346 371.847 158.74 371.764 159.238 371.764C159.881 371.764 160.447 371.925 160.938 372.246C161.428 372.568 161.811 373.024 162.086 373.614C162.361 374.204 162.499 374.9 162.499 375.702C162.499 376.51 162.361 377.211 162.086 377.805C161.811 378.395 161.43 378.852 160.943 379.177C160.456 379.498 159.894 379.659 159.257 379.659C158.767 379.659 158.374 379.578 158.079 379.415C157.784 379.25 157.557 379.062 157.398 378.854C157.239 378.642 157.116 378.466 157.03 378.327H156.931V382.364H155.757ZM156.911 375.682C156.911 376.259 156.995 376.767 157.164 377.208C157.333 377.646 157.58 377.989 157.905 378.237C158.23 378.482 158.628 378.605 159.098 378.605C159.589 378.605 159.998 378.476 160.326 378.217C160.658 377.955 160.906 377.604 161.072 377.163C161.241 376.719 161.326 376.225 161.326 375.682C161.326 375.145 161.243 374.661 161.077 374.23C160.915 373.796 160.668 373.453 160.336 373.201C160.008 372.946 159.596 372.818 159.098 372.818C158.621 372.818 158.22 372.939 157.895 373.181C157.57 373.42 157.325 373.754 157.159 374.185C156.994 374.613 156.911 375.112 156.911 375.682ZM169.698 373.574L168.644 373.872C168.578 373.696 168.48 373.526 168.35 373.36C168.225 373.191 168.052 373.052 167.833 372.942C167.615 372.833 167.335 372.778 166.993 372.778C166.526 372.778 166.136 372.886 165.825 373.102C165.517 373.314 165.363 373.584 165.363 373.912C165.363 374.204 165.469 374.434 165.681 374.603C165.893 374.772 166.224 374.913 166.675 375.026L167.809 375.304C168.491 375.47 169 375.723 169.335 376.065C169.67 376.403 169.837 376.839 169.837 377.372C169.837 377.81 169.711 378.201 169.459 378.545C169.211 378.89 168.863 379.162 168.415 379.361C167.968 379.56 167.447 379.659 166.854 379.659C166.075 379.659 165.431 379.49 164.92 379.152C164.41 378.814 164.087 378.32 163.951 377.67L165.064 377.392C165.17 377.803 165.371 378.111 165.666 378.317C165.964 378.522 166.354 378.625 166.834 378.625C167.381 378.625 167.815 378.509 168.137 378.277C168.462 378.042 168.624 377.76 168.624 377.432C168.624 377.167 168.531 376.945 168.346 376.766C168.16 376.583 167.875 376.447 167.49 376.358L166.218 376.06C165.518 375.894 165.005 375.637 164.676 375.289C164.352 374.938 164.189 374.499 164.189 373.972C164.189 373.541 164.31 373.16 164.552 372.828C164.797 372.497 165.131 372.237 165.551 372.048C165.976 371.859 166.456 371.764 166.993 371.764C167.749 371.764 168.342 371.93 168.773 372.261C169.207 372.593 169.516 373.03 169.698 373.574Z" fill="#0E1D0B"/>
<rect x="269" y="12" width="10" height="394" rx="5" fill="#FFE9E9"/>
<rect x="269" y="12" width="10" height="191" rx="5" fill="#FB2929"/>
</svg>
