<svg width="64" height="64" viewBox="0 0 64 64" fill="none" xmlns="http://www.w3.org/2000/svg">
<path d="M64 32C64 49.6731 49.6731 64 32 64C14.3269 64 0 49.6731 0 32C0 14.3269 14.3269 0 32 0C49.6731 0 64 14.3269 64 32Z" fill="#FFE9E9"/>
<path d="M29.5878 17.7144C27.8441 17.7437 26.2691 18.7837 25.5566 20.3919L34.0878 22.9687C34.4628 20.7319 33.1191 18.5631 30.9566 17.905C30.5691 17.7875 30.1628 17.7231 29.7566 17.7144H29.5878ZM25.2316 21.4694C24.8503 23.7125 26.1941 25.8875 28.3628 26.5437C30.5378 27.2 32.8566 26.125 33.7691 24.0437L25.2316 21.4694ZM41.8253 24.2375C40.2441 24.2437 38.5628 25.0062 37.2941 26.8L29.4941 37.8562C27.4003 40.8187 28.3128 43.9187 30.3753 45.3812C32.4441 46.85 35.6628 46.6812 37.7566 43.7187L45.5503 32.6687C47.6441 29.7 46.7316 26.6062 44.6691 25.1375C43.8941 24.5875 42.9628 24.2687 41.9816 24.2375H41.8253ZM41.7128 25.3187C41.7941 25.3187 41.8753 25.3187 41.9503 25.325C42.7066 25.3562 43.4191 25.625 44.0191 26.0562C45.6253 27.1937 46.4316 29.4625 44.6253 32.0187L40.5941 37.7375C38.3566 37.1375 35.4816 35.0937 34.1753 33.175L38.2191 27.45C39.2753 25.9562 40.5316 25.3437 41.7128 25.3187ZM21.7034 30.0812C21.1022 30.0875 20.5091 30.2125 19.9578 30.4562C17.8884 31.3625 16.8116 33.675 17.4428 35.85L25.6128 32.2812C24.7941 30.9 23.3066 30.0625 21.7034 30.0812ZM26.0566 33.3062L17.8878 36.8812C19.0409 38.8437 21.4691 39.6312 23.5503 38.725C25.6253 37.8125 26.7003 35.4875 26.0566 33.3062Z" fill="#FB2929"/>
</svg>
