<svg width="64" height="64" viewBox="0 0 64 64" fill="none" xmlns="http://www.w3.org/2000/svg">
<path d="M64 32C64 49.6731 49.6731 64 32 64C14.3269 64 0 49.6731 0 32C0 14.3269 14.3269 0 32 0C49.6731 0 64 14.3269 64 32Z" fill="#FFE9E9"/>
<path d="M43 38C43 41.31 40.31 44 37 44V42.5C39.5 42.5 41.5 40.5 41.5 38H43ZM21 28C21 24.69 23.69 22 27 22V23.5C24.5 23.5 22.5 25.5 22.5 28H21ZM28 25.32L23.41 29.92C20.19 33.14 20.19 38.37 23.41 41.59C26.63 44.81 31.86 44.81 35.08 41.59L42.15 34.5C42.64 34.03 42.64 33.24 42.15 32.75C42.0339 32.6336 41.8959 32.5412 41.7441 32.4782C41.5922 32.4152 41.4294 32.3828 41.265 32.3828C41.1006 32.3828 40.9378 32.4152 40.7859 32.4782C40.634 32.5412 40.4961 32.6336 40.38 32.75L35.96 37.17L35.25 36.46L41.79 29.92C42.28 29.43 42.28 28.64 41.79 28.15C41.3 27.66 40.5 27.66 40 28.15L34.19 34L33.5 33.27L40.37 26.38C40.86 25.89 40.86 25.1 40.37 24.61C39.88 24.12 39.09 24.12 38.6 24.61L31.71 31.5L31 30.8L36.5 25.32C37 24.83 37 24.04 36.5 23.55C36 23.06 35.22 23.06 34.73 23.55L27.11 31.17C27.7066 31.9396 28.0023 32.9004 27.9415 33.8723C27.8808 34.8442 27.4678 35.7606 26.78 36.45L26.07 35.74C26.6318 35.1775 26.9474 34.415 26.9474 33.62C26.9474 32.825 26.6318 32.0625 26.07 31.5L25.72 31.15L29.79 27.08C30.28 26.59 30.28 25.8 29.79 25.31C29.29 24.83 28.5 24.83 28 25.32Z" fill="#FB2929"/>
</svg>
